<svg xmlns="http://www.w3.org/2000/svg" viewBox="0 0 315.03 294.03"><defs><style>.cls-1{fill:#951e3d;}.cls-2{fill:#cc2d5e;}</style></defs><title>Asset 3</title><g id="Layer_2" data-name="Layer 2"><g id="Layer_1-2" data-name="Layer 1"><path class="cls-1" d="M44.87,248.36c26.09-21,52.52-41.59,78.15-63.12,18.87-15.85,27.44-18.38,37.55-8.08,9.89,10.09,7.15,22.82-11.39,37.89-28.23,22.95-57,45.3-86.74,66.28-14,9.91-30.85,19-48.37,6.94C-2.44,276.9-1.16,259,1.81,242.22c11.61-65.61,37.3-125.16,82.61-174.46,38.23-41.61,82.57-38.29,112,10.07,19.31,31.72,31.78,67.62,47.19,101.71,2,4.38,3.17,9.13,8.75,13.64,0-16.17,0-32.34,0-48.5,0-6.53-.75-13.1-.27-19.58.91-12.2,6.06-21,20-20.86s19.48,8.83,19.52,21.15c.1,32.66-.12,65.32-1,98-.36,14.06-.39,28.79-4.72,41.85-2.92,8.8-11.79,18.54-20.33,21.88-12.8,5-23.59-4.23-28.52-15.92-11.6-27.48-21.31-55.76-32.61-83.38-10.9-26.62-22.61-52.92-34.48-79.12-2.63-5.84-7.08-11-11.24-16-14-16.82-25.54-19.59-39.06-3.09a472.11,472.11,0,0,0-52.27,77.85c-12.67,23.94-19.56,50.94-29,76.59Z"/><path class="cls-2" d="M274.62,0C296,.05,315.08,19.65,315,41.39c-.07,22.62-17.77,40-40.77,40.07S234.18,64.27,234.3,41C234.41,18.36,252.51,0,274.62,0Z"/></g></g></svg>