<?xml version="1.0" encoding="UTF-8"?>
<!DOCTYPE svg PUBLIC "-//W3C//DTD SVG 1.1//EN" "http://www.w3.org/Graphics/SVG/1.1/DTD/svg11.dtd">
<svg xmlns="http://www.w3.org/2000/svg" version="1.1" width="2048px" height="2048px" style="shape-rendering:geometricPrecision; text-rendering:geometricPrecision; image-rendering:optimizeQuality; fill-rule:evenodd; clip-rule:evenodd" xmlns:xlink="http://www.w3.org/1999/xlink">
<g><path style="opacity:0.999" fill="#f7931a" d="M 977.5,-0.5 C 1007.5,-0.5 1037.5,-0.5 1067.5,-0.5C 1344.8,15.7619 1579.3,123.429 1771,322.5C 1941.04,508.279 2033.21,727.612 2047.5,980.5C 2047.5,1008.83 2047.5,1037.17 2047.5,1065.5C 2033.72,1317.85 1942.22,1536.85 1773,1722.5C 1605.52,1898 1401.02,2003.5 1159.5,2039C 1129.11,2042.89 1098.78,2045.72 1068.5,2047.5C 1038.83,2047.5 1009.17,2047.5 979.5,2047.5C 702.194,2031.24 467.694,1923.57 276,1724.5C 105.714,1538.82 13.5471,1319.49 -0.5,1066.5C -0.5,1038.17 -0.5,1009.83 -0.5,981.5C 13.2792,729.15 104.779,510.15 274,324.5C 441.476,149.001 645.976,43.5008 887.5,8C 917.561,4.16332 947.561,1.32999 977.5,-0.5 Z"/></g>
<g><path style="opacity:1" fill="#fffefe" d="M 981.5,356.5 C 1019.05,365.553 1056.38,375.22 1093.5,385.5C 1078.18,445.452 1063.18,505.452 1048.5,565.5C 1076.55,571.678 1104.55,578.178 1132.5,585C 1134.77,585.758 1136.94,585.591 1139,584.5C 1154.08,525.356 1168.91,466.19 1183.5,407C 1220.75,416.144 1258.08,425.311 1295.5,434.5C 1280.48,495.898 1265.15,557.231 1249.5,618.5C 1292.8,633.538 1334.13,652.705 1373.5,676C 1470.77,737.799 1499.94,823.299 1461,932.5C 1444.71,976.794 1415.21,1008.96 1372.5,1029C 1359.43,1034.47 1346.1,1039.13 1332.5,1043C 1367.97,1060.16 1397.81,1084.33 1422,1115.5C 1448.34,1154.22 1458.34,1196.88 1452,1243.5C 1444.8,1295.45 1427.13,1343.45 1399,1387.5C 1360.29,1440.96 1307.79,1471.46 1241.5,1479C 1206.57,1482.79 1171.57,1483.45 1136.5,1481C 1103.37,1477.4 1070.37,1472.9 1037.5,1467.5C 1022.97,1529.28 1007.97,1590.95 992.5,1652.5C 954.874,1643.34 917.207,1634.34 879.5,1625.5C 894.518,1564.1 909.851,1502.76 925.5,1441.5C 895.485,1433.83 865.485,1426.16 835.5,1418.5C 820.185,1479.76 805.185,1541.09 790.5,1602.5C 753.108,1593.65 715.775,1584.49 678.5,1575C 678.043,1574.59 677.709,1574.09 677.5,1573.5C 693.468,1511.63 708.801,1449.63 723.5,1387.5C 648.66,1368.33 573.66,1349.66 498.5,1331.5C 516.147,1288.4 534.48,1245.57 553.5,1203C 576.166,1208.33 598.832,1214 621.5,1220C 629.757,1221.93 638.09,1223.43 646.5,1224.5C 666.931,1223.91 680.431,1213.91 687,1194.5C 729.222,1027.28 770.889,860.278 812,693.5C 815.64,666.615 805.806,646.448 782.5,633C 773.459,628.875 764.126,625.542 754.5,623C 729.714,616.429 704.881,610.262 680,604.5C 688.539,565.007 698.039,525.673 708.5,486.5C 710.074,485.369 711.741,485.202 713.5,486C 787.412,504.812 861.412,522.978 935.5,540.5C 950.525,479.067 965.858,417.733 981.5,356.5 Z"/></g>
<g><path style="opacity:1" fill="#f7931a" d="M 1017.5,698.5 C 1063.83,706.917 1109.17,719.083 1153.5,735C 1181.86,745.585 1207.03,761.085 1229,781.5C 1258.98,814.769 1264.98,852.102 1247,893.5C 1234.14,920.35 1213.31,937.85 1184.5,946C 1155.14,952.455 1125.47,954.122 1095.5,951C 1050.77,944.823 1006.77,935.323 963.5,922.5C 963.167,921.833 962.833,921.167 962.5,920.5C 981.146,846.582 999.479,772.582 1017.5,698.5 Z"/></g>
<g><path style="opacity:1" fill="#fcd09b" d="M 762.5,902.5 C 764.726,901.441 767.059,901.608 769.5,903C 767.153,903.334 764.819,903.167 762.5,902.5 Z"/></g>
<g><path style="opacity:1" fill="#f7931a" d="M 933.5,1035.5 C 988.116,1046.4 1041.78,1060.9 1094.5,1079C 1124.94,1090.21 1152.94,1105.55 1178.5,1125C 1223.47,1163.03 1233.63,1208.87 1209,1262.5C 1195.84,1285.98 1176.34,1301.81 1150.5,1310C 1126.42,1317.43 1101.75,1320.59 1076.5,1319.5C 1049.29,1319.41 1022.29,1316.91 995.5,1312C 954.057,1303.87 913.057,1294.04 872.5,1282.5C 892.991,1200.2 913.325,1117.87 933.5,1035.5 Z"/></g>
</svg>
